<?xml version="1.0" standalone="no"?>
<!DOCTYPE svg PUBLIC "-//W3C//DTD SVG 20010904//EN"
 "http://www.w3.org/TR/2001/REC-SVG-20010904/DTD/svg10.dtd">
<svg version="1.0" xmlns="http://www.w3.org/2000/svg"
 width="478.000000pt" height="327.000000pt" viewBox="0 0 478.000000 327.000000"
 preserveAspectRatio="xMidYMid meet">

<g transform="translate(0.000000,327.000000) scale(0.100000,-0.100000)"
fill="#000000" stroke="none">
<path d="M1380 3245 c-352 -49 -626 -177 -862 -404 -239 -229 -403 -524 -479
-866 -22 -98 -23 -117 -26 -823 -4 -647 -2 -729 12 -780 72 -249 315 -402 578
-364 207 30 380 189 422 389 12 55 15 189 15 696 0 669 2 700 51 814 43 101
132 206 217 254 33 19 43 33 67 98 87 236 264 499 448 666 147 133 345 254
517 314 l55 20 -460 -1 c-322 0 -488 -4 -555 -13z"/>
<path d="M2761 3249 c-373 -42 -680 -182 -921 -419 -232 -229 -395 -528 -460
-847 -34 -163 -41 -362 -38 -983 4 -572 4 -586 26 -650 28 -85 57 -130 123
-197 72 -72 186 -129 292 -144 260 -38 508 121 572 366 13 50 15 155 15 680 0
374 4 646 10 685 17 103 48 186 102 266 111 166 293 244 538 231 239 -13 408
-112 495 -292 62 -126 68 -162 72 -458 l5 -267 44 39 c96 84 270 153 418 167
174 16 407 -61 530 -175 l28 -26 -5 300 c-4 248 -8 321 -26 419 -52 292 -179
560 -373 791 -220 262 -525 433 -884 496 -138 24 -430 33 -563 18z"/>
<path d="M4050 1344 c-118 -20 -157 -31 -240 -71 -81 -39 -108 -58 -180 -132
-135 -136 -193 -277 -193 -466 0 -117 18 -200 68 -300 91 -184 264 -317 467
-359 152 -31 287 -13 436 60 133 65 233 165 296 296 58 122 71 180 70 313 -2
193 -66 338 -210 474 -121 115 -252 173 -419 184 -38 3 -81 3 -95 1z"/>
</g>
</svg>
